<?xml version="1.0" standalone="no"?>
<!DOCTYPE svg PUBLIC "-//W3C//DTD SVG 20010904//EN"
 "http://www.w3.org/TR/2001/REC-SVG-20010904/DTD/svg10.dtd">
<svg version="1.0" xmlns="http://www.w3.org/2000/svg"
 width="440.000000pt" height="440.000000pt" viewBox="0 0 440.000000 440.000000"
 preserveAspectRatio="xMidYMid meet">
<metadata>
Created by potrace 1.14, written by Peter Selinger 2001-2017
</metadata>
<g transform="translate(0.000000,440.000000) scale(0.100000,-0.100000)"
fill="#000000" stroke="none">
<path d="M2930 3912 c-16 -5 -75 -52 -66 -52 3 0 1 -11 -4 -25 -6 -16 -6 -25
0 -25 6 0 10 -9 10 -20 0 -11 4 -20 9 -20 5 0 7 -8 4 -18 -4 -16 1 -18 38 -15
35 3 123 42 96 43 -5 0 -2 7 7 15 15 16 12 67 -5 73 -5 2 -7 8 -3 13 3 5 -1 9
-8 9 -8 0 -19 5 -26 12 -14 14 -31 17 -52 10z"/>
<path d="M1905 3862 c-63 -14 -92 -89 -50 -134 13 -14 22 -28 19 -31 -3 -3 18
-5 48 -4 38 1 52 -3 50 -12 -1 -7 2 -10 8 -6 6 3 8 10 6 14 -3 4 4 31 15 60
11 29 15 50 10 46 -6 -3 -13 6 -17 20 -3 13 -10 22 -15 19 -5 -3 -9 -1 -9 4 0
13 -42 29 -65 24z"/>
<path d="M3466 3723 c-5 -12 -3 -13 6 -6 17 12 44 10 41 -3 -1 -6 5 -11 13
-11 8 0 14 6 14 14 0 7 -3 12 -7 12 -5 -1 -10 -1 -13 1 -27 10 -49 7 -54 -7z"/>
<path d="M3550 3709 c0 -5 5 -7 10 -4 6 3 10 -2 11 -12 0 -16 1 -16 9 2 6 14
9 16 10 5 2 -8 2 -19 1 -24 -1 -5 5 -4 13 4 9 7 16 8 16 4 0 -5 15 -15 33 -22
61 -26 122 -57 129 -67 5 -7 8 -7 8 0 0 6 6 3 13 -5 7 -9 29 -26 50 -39 20
-12 37 -26 37 -30 0 -4 11 -14 25 -21 14 -7 23 -15 21 -17 -2 -2 11 -19 28
-38 48 -52 55 -62 49 -69 -4 -3 -1 -6 5 -6 7 0 12 -9 12 -21 0 -11 4 -18 8
-15 7 4 36 -59 35 -74 -1 -3 4 -14 10 -25 6 -11 11 -41 13 -67 1 -25 5 -51 9
-58 4 -6 2 -17 -5 -25 -6 -7 -7 -16 -3 -18 10 -7 10 -48 -1 -65 -4 -7 -3 -12
3 -12 5 0 7 -10 4 -22 -3 -13 -5 -33 -6 -45 -1 -13 -4 -23 -8 -23 -5 0 -6 -9
-4 -20 2 -11 0 -20 -5 -20 -5 0 -7 -6 -4 -14 3 -7 -2 -20 -10 -29 -8 -8 -13
-17 -10 -19 7 -7 -64 -158 -92 -194 -13 -17 -21 -34 -19 -36 3 -3 -6 -15 -20
-28 -14 -13 -25 -29 -25 -36 0 -7 -4 -14 -8 -16 -4 -1 -24 -24 -44 -50 -19
-26 -38 -45 -42 -41 -3 3 -6 0 -6 -7 0 -7 -45 -57 -100 -111 -55 -54 -100 -96
-100 -94 0 2 -11 -7 -25 -20 -13 -14 -29 -25 -35 -25 -6 0 -8 -4 -5 -10 6 -9
-8 -14 -27 -11 -5 0 -8 -6 -8 -14 0 -8 -5 -15 -11 -15 -6 0 -16 -6 -23 -12 -8
-7 -24 -20 -36 -28 -13 -8 -31 -23 -41 -32 -9 -9 -20 -14 -23 -10 -3 3 -6 1
-6 -5 0 -6 -9 -13 -21 -16 -12 -3 -18 -10 -14 -17 3 -6 3 -10 -2 -9 -15 4 -63
-20 -63 -31 0 -6 -4 -9 -9 -6 -5 3 -20 -5 -33 -17 -14 -13 -29 -22 -35 -20 -5
2 -20 -6 -32 -17 -13 -11 -28 -17 -33 -14 -4 3 -7 0 -6 -7 2 -7 -2 -13 -9 -14
-6 0 -15 -3 -19 -7 -4 -5 -16 -8 -26 -8 -11 0 -16 -4 -13 -10 3 -5 -3 -10 -14
-10 -12 0 -21 -4 -21 -8 0 -9 -59 -36 -77 -35 -7 1 -13 -3 -13 -8 0 -5 -7 -9
-15 -9 -8 0 -15 -5 -15 -11 0 -6 -9 -9 -20 -6 -11 3 -17 1 -14 -4 3 -5 -8 -12
-25 -15 -17 -4 -31 -11 -31 -17 0 -6 -3 -7 -7 -4 -3 4 -15 -1 -26 -10 -15 -13
-18 -14 -12 -3 6 11 3 10 -12 -3 -11 -9 -23 -14 -26 -10 -4 3 -7 2 -7 -3 0 -5
-10 -11 -22 -11 -13 -1 -24 -7 -26 -13 -2 -5 -8 -8 -13 -4 -5 3 -9 1 -9 -5 0
-6 -7 -8 -15 -5 -8 4 -15 2 -15 -3 0 -5 -10 -10 -22 -10 -13 -1 -24 -7 -26
-13 -2 -5 -8 -8 -13 -5 -4 3 -26 -3 -47 -14 -22 -11 -42 -17 -46 -14 -3 3 -12
0 -21 -7 -8 -7 -15 -10 -15 -6 0 4 -13 0 -30 -9 -16 -9 -30 -13 -30 -10 0 3
-16 -1 -35 -9 -19 -8 -35 -13 -35 -10 0 2 -15 -2 -34 -10 -19 -8 -37 -12 -40
-8 -3 3 -6 1 -6 -5 0 -6 -12 -8 -26 -5 -16 3 -25 1 -21 -5 3 -5 -5 -10 -19
-11 -13 -1 -35 -3 -49 -4 -14 -1 -25 -5 -25 -8 0 -4 -16 -7 -35 -8 -20 -1 -41
-5 -48 -9 -7 -4 -23 -8 -37 -9 -14 -1 -38 -5 -55 -9 -16 -3 -46 -8 -65 -11
-19 -2 -48 -6 -65 -9 -38 -6 -135 -15 -201 -19 -28 -2 -57 -7 -64 -11 -9 -5
-11 -4 -6 3 9 15 1 15 -26 1 -15 -8 -19 -8 -14 0 9 14 4 14 -28 1 -19 -7 -26
-6 -26 3 0 7 -3 8 -8 2 -8 -11 -37 -13 -47 -3 -4 4 -17 3 -29 -2 -13 -4 -28
-5 -35 -1 -7 5 -24 7 -39 5 -15 -1 -32 2 -39 8 -8 6 -13 7 -13 1 0 -11 -107
-7 -125 5 -5 4 -29 7 -52 7 -24 -1 -43 2 -43 6 0 5 -9 6 -20 4 -11 -2 -20 0
-20 4 0 4 -13 6 -30 5 -16 -1 -30 2 -30 6 0 5 -8 7 -17 6 -10 -2 -33 3 -50 11
-18 7 -33 10 -33 7 0 -4 -7 -1 -15 6 -9 7 -18 10 -22 7 -3 -4 -18 2 -33 13
-15 11 -30 17 -33 14 -3 -4 -13 1 -22 10 -9 9 -20 14 -25 11 -5 -3 -25 6 -46
20 -20 14 -43 25 -50 25 -8 0 -14 5 -14 12 0 6 -3 9 -6 5 -3 -3 -18 5 -32 19
-15 13 -31 24 -36 24 -13 0 -131 123 -152 159 -10 17 -22 31 -27 31 -4 0 -5 5
-2 10 3 6 -1 17 -9 26 -9 9 -14 20 -11 25 4 5 2 9 -3 9 -11 0 -26 55 -23 83 1
9 -2 17 -7 17 -5 0 -8 14 -7 30 1 17 -1 33 -6 36 -5 3 -9 12 -9 20 0 9 5 12
12 8 7 -4 8 -3 4 4 -10 16 -16 72 -8 72 4 0 7 20 6 45 -1 25 2 45 7 45 4 0 6
11 4 25 -1 14 2 25 7 25 5 0 6 5 3 10 -4 6 -1 17 5 25 6 8 9 19 5 25 -3 5 -1
10 5 10 7 0 10 6 7 13 -2 6 6 28 19 48 13 20 21 39 18 41 -2 3 2 11 11 18 8 7
15 20 15 30 0 10 7 24 16 31 22 18 42 69 27 69 -5 0 -8 -3 -8 -7 0 -16 -32
-52 -40 -45 -4 4 -5 -1 -2 -10 4 -10 2 -18 -4 -18 -6 0 -9 -7 -5 -15 3 -8 2
-14 -2 -14 -20 3 -33 -2 -27 -11 3 -5 1 -10 -5 -10 -6 0 -9 -4 -6 -9 4 -5 3
-11 -1 -13 -5 -1 -19 -18 -32 -37 -13 -19 -17 -30 -10 -26 9 5 7 1 -3 -11 -19
-22 -80 -154 -71 -154 3 0 0 -7 -7 -15 -6 -8 -8 -20 -4 -26 4 -8 3 -9 -4 -5
-8 5 -12 -1 -13 -16 -1 -23 -2 -28 -14 -78 -4 -14 -8 -43 -10 -64 -2 -22 -7
-46 -9 -53 -3 -8 -2 -12 2 -9 5 3 8 -14 7 -37 -1 -23 2 -47 7 -54 5 -6 11 -24
12 -40 2 -15 9 -44 17 -63 7 -19 12 -38 11 -42 -1 -5 3 -8 8 -8 6 0 10 -6 10
-14 0 -8 12 -29 27 -47 16 -18 27 -34 26 -36 -8 -9 -1 -23 12 -23 8 0 15 -4
15 -10 0 -17 101 -111 157 -147 15 -9 31 -22 35 -28 5 -6 8 -6 8 0 0 6 4 5 8
-2 4 -6 14 -13 22 -15 8 -2 23 -11 34 -20 11 -10 27 -18 36 -18 8 0 25 -7 36
-15 12 -8 24 -11 28 -8 3 3 6 1 6 -6 0 -7 5 -9 10 -6 6 3 10 1 10 -5 0 -6 4
-9 8 -6 5 3 20 -1 35 -9 15 -8 27 -11 27 -8 0 3 6 0 13 -6 8 -6 17 -8 20 -4 4
3 13 0 21 -6 8 -7 20 -11 28 -10 7 2 22 -2 33 -8 11 -6 28 -9 37 -8 10 2 20
-1 23 -5 3 -5 12 -7 19 -4 8 3 17 1 20 -5 4 -6 14 -7 23 -4 11 5 14 3 8 -6 -6
-10 -3 -11 12 -2 11 6 23 8 26 4 4 -3 21 -7 39 -8 18 -2 33 -4 33 -5 0 -1 11
-3 25 -4 14 0 30 -5 37 -9 6 -4 14 -3 18 3 4 6 13 7 23 2 17 -9 343 -8 394 1
16 2 28 0 28 -5 0 -5 7 -5 18 0 9 5 29 8 45 7 15 -1 27 1 27 5 0 4 19 7 43 7
23 0 51 3 61 8 15 6 17 5 11 -5 -6 -10 -4 -11 6 -4 15 9 29 13 74 19 17 2 32
5 35 6 3 0 13 0 24 -1 10 -1 16 3 12 8 -3 5 6 8 21 6 15 -1 35 2 45 7 13 7 18
6 18 -3 0 -10 3 -9 9 1 5 8 24 16 43 17 18 1 33 3 33 4 0 2 34 9 60 13 11 2
29 8 40 13 11 5 29 9 40 9 11 0 22 3 25 7 3 4 17 9 30 12 58 12 71 15 83 23 6
4 20 6 30 5 9 -2 17 2 17 9 0 7 3 10 6 6 3 -3 18 -1 33 5 14 5 33 11 41 13 8
2 29 9 45 16 17 6 39 14 49 16 11 2 25 8 31 13 7 5 15 7 18 3 4 -3 7 -1 7 5 0
6 6 9 14 6 8 -3 17 0 21 5 3 6 11 9 16 6 5 -4 9 -1 9 4 0 6 8 11 18 11 10 0
27 7 39 15 16 12 22 12 26 2 4 -8 6 -6 6 4 1 9 7 16 14 16 6 0 39 12 72 28 33
15 66 28 73 28 6 0 12 4 12 8 0 7 39 22 53 20 4 -1 7 3 7 8 0 5 16 15 35 21
19 6 35 16 35 22 0 6 3 8 6 5 4 -4 19 2 33 12 14 10 36 22 49 25 12 4 22 12
22 18 0 6 3 8 7 5 3 -4 18 3 31 15 14 13 21 16 17 8 -6 -11 -3 -10 12 3 11 9
25 17 31 17 7 0 12 5 12 10 0 9 54 36 56 28 0 -2 11 9 25 23 13 15 27 26 31
25 3 0 35 20 70 45 34 25 67 47 72 50 6 2 24 16 40 31 17 15 35 29 40 30 8 3
77 63 143 126 19 17 40 32 46 32 5 0 8 3 5 6 -7 7 44 60 55 56 4 -1 7 2 7 6 0
14 41 57 52 54 5 -1 7 1 4 6 -3 5 11 26 31 46 20 20 33 36 30 36 -4 0 1 8 11
18 9 10 24 29 32 42 8 12 24 32 35 43 12 11 14 17 5 13 -9 -5 -8 -2 3 7 9 8
17 19 17 26 0 6 5 11 10 11 6 0 10 6 10 14 0 7 8 24 19 37 10 13 19 27 20 32
0 4 8 21 16 37 9 17 12 30 8 30 -5 0 -2 4 5 9 7 4 15 14 16 22 2 8 8 27 15 42
6 16 9 33 5 38 -3 5 0 9 6 9 6 0 8 5 5 10 -3 6 -2 10 2 10 5 0 9 10 10 23 1
12 4 33 8 47 11 41 14 199 4 206 -5 3 -7 9 -4 14 3 5 1 11 -4 15 -6 3 -8 11
-5 18 2 7 -3 31 -13 53 -20 47 -19 44 -28 72 -4 12 -12 22 -18 22 -6 0 -7 3
-4 6 6 6 -23 55 -50 82 -7 7 -13 18 -13 23 0 5 -7 9 -17 9 -9 0 -14 3 -11 6 7
6 -58 74 -71 74 -5 0 -11 3 -13 8 -8 18 -91 72 -170 110 -95 47 -198 85 -198
74 0 -4 -4 -1 -8 5 -4 7 -19 15 -32 17 -14 2 -25 5 -25 6 0 1 -10 3 -22 6 -13
2 -23 -1 -23 -7z"/>
<path d="M2819 3633 c-13 -16 -12 -17 4 -4 16 13 21 21 13 21 -2 0 -10 -8 -17
-17z"/>
<path d="M2110 3505 c0 -5 5 -17 10 -25 5 -8 10 -10 10 -5 0 6 -5 17 -10 25
-5 8 -10 11 -10 5z"/>
<path d="M2196 3367 c3 -10 9 -15 12 -12 3 3 0 11 -7 18 -10 9 -11 8 -5 -6z"/>
<path d="M2525 3200 c3 -5 8 -10 11 -10 2 0 4 5 4 10 0 6 -5 10 -11 10 -5 0
-7 -4 -4 -10z"/>
<path d="M2404 3172 c4 -7 -6 -10 -32 -9 -22 1 -44 -3 -51 -10 -6 -7 -9 -13
-6 -13 3 0 0 -6 -7 -14 -7 -8 -16 -12 -20 -9 -5 2 -8 -1 -8 -7 0 -21 -48 -63
-65 -57 -10 4 -14 3 -10 -4 4 -6 -2 -8 -17 -5 -63 14 -99 16 -92 4 4 -7 3 -8
-5 -4 -15 10 -92 15 -86 7 2 -4 -5 -7 -15 -7 -10 0 -17 4 -14 8 2 4 -5 6 -16
5 -11 -1 -20 -6 -20 -12 0 -6 -3 -7 -8 0 -11 15 -55 18 -46 2 6 -9 4 -9 -7 1
-16 15 -33 16 -23 0 4 -7 3 -8 -5 -4 -15 10 -92 15 -86 7 2 -4 -5 -7 -15 -7
-10 0 -17 4 -14 8 2 4 -5 6 -16 5 -11 -1 -20 -6 -20 -12 0 -6 -3 -7 -8 0 -10
14 -84 17 -76 3 4 -7 2 -8 -5 -4 -15 10 -92 15 -86 7 2 -4 -5 -7 -15 -7 -10 0
-17 4 -14 8 2 4 -5 6 -16 5 -11 -1 -20 -6 -20 -12 0 -6 -3 -7 -8 0 -11 15 -55
18 -46 2 6 -9 4 -9 -7 1 -16 15 -33 16 -23 0 4 -7 3 -8 -5 -4 -20 13 -91 14
-84 2 3 -6 0 -5 -8 2 -16 15 -33 16 -23 0 4 -7 3 -8 -5 -4 -20 13 -82 15 -74
3 3 -6 1 -7 -6 -3 -16 10 -82 16 -77 7 3 -4 -8 -6 -25 -5 -16 1 -29 -2 -29 -6
0 -5 -8 -7 -17 -6 -10 2 -30 -10 -46 -25 -15 -16 -27 -25 -28 -21 0 4 -10 -14
-22 -40 -19 -39 -23 -64 -22 -148 0 -60 -4 -100 -10 -100 -6 0 -6 -3 1 -8 13
-9 13 -144 -1 -154 -6 -5 -5 -8 2 -8 13 0 13 -26 0 -46 -3 -6 -3 -14 0 -18 11
-11 11 -136 0 -129 -6 4 -7 1 -2 -7 14 -22 15 -101 1 -93 -8 5 -8 3 0 -8 12
-15 13 -47 1 -65 -3 -6 -3 -14 0 -18 11 -11 11 -136 0 -129 -6 4 -7 1 -2 -7
13 -21 15 -101 2 -93 -6 4 -7 1 -1 -8 13 -21 13 -139 0 -132 -8 5 -8 3 0 -8
11 -15 11 -79 0 -98 -4 -7 -2 -10 5 -9 7 2 14 -4 14 -12 2 -27 18 -54 52 -89
18 -18 33 -30 33 -27 0 4 10 1 22 -6 15 -8 72 -13 168 -13 80 0 151 -5 159 -9
8 -6 12 -5 8 0 -7 12 213 12 232 0 8 -5 12 -5 9 0 -4 5 76 9 190 8 203 0 235
2 227 17 -3 4 13 7 35 6 22 -2 41 1 42 5 2 5 17 11 33 14 17 2 39 8 50 11 32
11 49 15 68 16 9 1 17 5 17 9 0 4 3 7 8 7 4 -1 21 -1 37 0 22 1 26 4 15 10 -8
6 -18 7 -22 5 -4 -3 -8 -2 -8 3 0 4 -70 8 -155 8 -85 0 -155 -4 -155 -8 0 -5
-5 -5 -11 -1 -16 10 -99 11 -99 1 0 -4 -4 -5 -10 -2 -14 9 -150 11 -150 3 0
-4 -6 -5 -14 -2 -24 9 -196 10 -196 1 0 -5 -5 -5 -10 -2 -15 9 -180 11 -180 2
0 -5 -4 -6 -10 -2 -5 3 -47 7 -92 8 -48 1 -90 7 -98 14 -53 44 -67 60 -64 76
1 9 -2 17 -8 17 -6 0 -8 9 -5 20 3 11 2 20 -1 20 -9 0 -7 993 2 1008 4 7 2 12
-6 12 -8 0 -9 3 -3 8 6 4 11 14 11 22 1 27 17 55 47 83 17 15 33 27 36 28 3 0
15 3 26 5 34 9 269 10 293 2 13 -4 21 -5 18 0 -2 4 18 7 45 7 27 0 49 -2 49
-6 0 -3 7 -6 15 -6 8 0 12 3 10 6 -2 4 19 6 46 6 27 0 49 -2 49 -6 0 -3 7 -6
15 -6 8 0 12 3 11 6 -2 3 54 6 125 6 71 0 129 -3 129 -6 0 -3 7 -6 15 -6 8 0
12 3 10 7 -6 10 90 6 97 -5 5 -7 8 -6 8 1 0 6 7 11 15 11 8 0 15 -3 15 -7 0
-4 7 -7 15 -7 8 0 12 3 10 6 -2 4 19 6 46 6 27 0 49 -3 49 -8 0 -4 5 -5 12 -1
16 10 127 11 156 2 13 -5 21 -5 18 0 -2 4 18 7 45 7 27 0 49 -2 49 -6 0 -3 7
-6 15 -6 8 0 12 3 10 6 -2 4 19 6 46 6 27 0 49 -2 49 -6 0 -3 7 -6 15 -6 8 0
12 3 10 6 -2 4 49 6 114 5 125 -2 196 -21 207 -56 3 -10 9 -18 13 -18 4 0 8
-6 9 -12 0 -7 3 -24 7 -38 11 -39 12 -120 3 -126 -5 -3 -5 -11 -1 -17 11 -18
10 -427 -1 -420 -5 4 -6 0 -1 -8 11 -17 13 -189 2 -196 -4 -2 -4 -10 1 -16 5
-7 8 -38 7 -70 -1 -49 1 -57 14 -51 9 3 24 9 34 11 9 3 17 9 17 14 0 5 3 8 8
7 4 -2 17 4 28 12 16 11 21 24 19 48 -2 19 2 32 9 32 6 0 5 4 -3 9 -20 13 -5
31 22 25 12 -2 34 -12 48 -23 l26 -20 37 30 c20 17 36 28 36 24 0 -4 7 0 15 7
30 27 44 38 50 38 3 0 11 5 18 10 7 6 22 19 35 29 15 13 24 32 25 55 2 19 6
38 9 41 4 4 3 17 -1 29 -9 26 -8 87 2 103 4 6 3 14 -1 17 -10 6 -10 81 0 91 4
4 3 17 -1 29 -4 11 -7 49 -6 84 1 34 -2 62 -6 62 -5 0 -9 -5 -9 -11 0 -6 -5
-9 -12 -7 -6 2 -22 -6 -36 -19 -14 -13 -31 -23 -39 -23 -8 0 -11 -4 -8 -10 3
-5 -5 -12 -19 -16 -13 -3 -27 -12 -30 -20 -3 -8 -12 -14 -21 -14 -8 0 -15 -4
-15 -10 0 -5 -6 -10 -14 -10 -8 0 -17 -7 -20 -16 -3 -8 -10 -13 -15 -10 -5 3
-12 -1 -15 -10 -3 -8 -10 -12 -16 -9 -5 3 -10 2 -10 -3 0 -6 -9 -8 -19 -5 -19
5 -23 36 -7 61 3 6 2 13 -4 17 -5 3 -10 11 -10 16 0 6 4 8 8 5 5 -3 9 1 9 9 0
8 -3 15 -6 15 -3 0 -6 50 -6 110 0 61 4 110 8 110 5 0 6 4 3 8 -3 5 -8 24 -11
43 -7 45 -25 89 -36 89 -5 0 -9 6 -9 13 0 10 -51 49 -70 53 -3 0 -13 4 -23 8
-9 5 -28 6 -42 4 -13 -3 -22 -2 -19 3 2 4 -5 7 -16 6 -11 -1 -20 -6 -20 -12 0
-6 -3 -7 -8 0 -11 15 -55 18 -46 2 6 -9 4 -9 -7 1 -16 15 -33 16 -23 0 4 -7 3
-8 -5 -4 -17 11 -91 15 -85 5 3 -5 -6 -5 -20 1 -19 7 -26 6 -26 -3 0 -8 -4 -7
-10 3 -5 8 -10 10 -10 4 0 -12 -29 -12 -48 0 -6 4 -12 4 -12 -1 -1 -4 -8 4
-16 20 -8 15 -19 27 -24 27 -6 0 -10 8 -10 17 0 9 -3 13 -7 10 -9 -10 -35 31
-27 44 4 8 1 8 -12 1 -21 -11 -74 -10 -94 3 -8 5 -11 4 -6 -3z"/>
<path d="M1930 2780 c0 -7 -8 -9 -21 -5 -16 5 -19 4 -14 -5 6 -9 4 -11 -5 -5
-19 12 -120 14 -113 2 4 -6 1 -7 -7 -2 -19 12 -120 14 -113 2 3 -6 1 -7 -6 -3
-20 13 -82 15 -74 3 4 -6 1 -7 -7 -2 -19 11 -120 14 -113 2 3 -5 -2 -6 -13 0
-24 12 -92 9 -106 -5 -6 -6 -17 -8 -25 -5 -7 3 -22 -5 -33 -17 -11 -13 -20
-19 -20 -14 0 5 -7 -4 -15 -20 -8 -15 -12 -32 -9 -37 3 -5 0 -9 -6 -9 -8 0
-10 -9 -6 -25 4 -15 2 -25 -4 -25 -7 0 -8 -6 -1 -18 7 -13 6 -23 -1 -30 -8 -8
-8 -12 -2 -12 6 0 11 -7 11 -15 0 -8 -5 -15 -11 -15 -7 0 -7 -3 -1 -8 12 -8
14 -143 3 -136 -5 3 -4 -6 1 -19 6 -16 6 -28 -2 -36 -7 -7 -7 -11 -1 -11 6 0
11 -7 11 -15 0 -8 -5 -15 -11 -15 -7 0 -7 -3 -1 -8 12 -8 14 -143 3 -136 -5 3
-4 -6 1 -19 6 -16 6 -28 -2 -36 -7 -7 -7 -11 -1 -11 6 0 11 -7 11 -15 0 -8 -5
-15 -11 -15 -7 0 -7 -3 -1 -8 6 -4 11 -36 12 -72 2 -86 3 -91 39 -126 36 -34
44 -37 104 -38 25 -1 50 -5 56 -9 6 -3 14 -4 18 0 11 11 86 11 79 0 -4 -6 -1
-7 8 -1 18 11 129 12 136 2 2 -5 9 -5 16 -1 18 11 87 11 80 0 -4 -6 -1 -7 8
-1 18 11 129 12 136 2 2 -5 9 -5 16 -1 18 11 87 11 80 0 -4 -6 -1 -7 8 -1 18
11 129 12 136 2 2 -5 9 -5 16 -1 18 11 87 11 80 0 -4 -6 -1 -7 8 -1 18 11 129
12 136 2 2 -5 9 -5 16 -1 19 12 87 11 80 -1 -5 -8 -3 -8 8 0 8 6 57 9 114 9
55 -1 105 1 110 6 6 4 13 8 17 8 15 3 53 20 45 20 -4 1 1 10 11 22 25 26 30
53 30 171 0 53 3 101 7 107 3 6 3 11 -2 11 -10 0 -9 52 1 68 4 7 4 12 -1 12
-9 0 -8 214 2 230 3 5 3 10 -2 10 -10 0 -9 52 1 68 4 7 4 12 -1 12 -4 0 -7 29
-6 65 1 36 -3 67 -8 71 -5 3 -7 10 -4 15 4 5 1 9 -4 9 -6 0 -11 7 -11 15 0 8
-7 15 -15 15 -7 0 -19 8 -24 18 -6 9 -11 13 -11 8 0 -4 -11 -1 -25 8 -15 10
-25 12 -25 6 0 -6 -5 -8 -11 -4 -18 11 -109 12 -102 1 4 -6 1 -7 -7 -2 -19 12
-120 14 -113 2 4 -6 1 -7 -7 -2 -19 12 -120 14 -113 2 4 -6 1 -7 -6 -2 -20 11
-71 12 -71 1 0 -7 -3 -8 -8 -1 -9 13 -55 18 -47 5 9 -15 -2 -12 -19 6 -10 10
-16 11 -16 4 0 -8 -9 -10 -26 -6 -17 5 -23 3 -19 -4 9 -15 -1 -12 -19 6 -10
10 -16 11 -16 4 0 -8 -9 -10 -26 -6 -17 5 -23 3 -19 -4 9 -15 -1 -12 -19 6
-10 10 -16 11 -16 4 0 -8 -9 -10 -26 -6 -17 5 -23 3 -19 -4 9 -15 -1 -12 -19
6 -10 9 -16 11 -16 4z m-52 -143 c7 -5 12 -4 12 2 0 6 9 2 20 -9 11 -11 27
-20 35 -20 8 0 15 -4 15 -10 0 -5 7 -10 16 -10 8 0 12 -4 9 -10 -6 -9 8 -14
28 -11 4 0 7 -3 7 -8 0 -5 11 -12 25 -15 14 -4 25 -13 25 -21 0 -8 8 -15 18
-15 17 0 30 -9 80 -50 6 -6 12 -8 12 -6 0 3 17 -6 38 -19 47 -32 56 -38 117
-77 28 -17 51 -33 53 -34 2 -1 5 -17 6 -35 2 -31 -28 -78 -46 -71 -5 1 -8 -2
-8 -8 0 -5 -7 -10 -15 -10 -8 0 -15 -5 -15 -12 0 -6 -3 -9 -6 -5 -3 3 -15 -3
-27 -13 -11 -11 -23 -17 -27 -15 -5 3 -11 -2 -14 -11 -4 -9 -9 -14 -12 -11 -6
5 -15 0 -49 -30 -7 -7 -18 -13 -24 -13 -6 0 -11 -5 -11 -11 0 -5 -4 -7 -10 -4
-5 3 -10 2 -10 -2 0 -10 -71 -49 -83 -45 -5 1 -6 -2 -3 -7 3 -5 -10 -16 -29
-25 -19 -9 -35 -21 -35 -27 0 -6 -4 -8 -9 -4 -5 3 -17 -2 -25 -11 -9 -8 -16
-12 -16 -8 0 4 -6 0 -13 -10 -7 -10 -28 -19 -46 -21 -57 -5 -58 4 -57 360 1
176 5 326 10 334 7 10 5 12 -5 7 -8 -4 -4 1 9 12 22 21 37 23 60 9z"/>
<path d="M395 2659 c-4 -6 -5 -12 -2 -15 2 -3 7 2 10 11 7 17 1 20 -8 4z"/>
<path d="M360 2631 c0 -6 4 -13 10 -16 6 -3 7 1 4 9 -7 18 -14 21 -14 7z"/>
<path d="M3244 1032 c2 -4 -46 -7 -107 -7 l-112 0 0 -52 c0 -29 -4 -53 -8 -53
-5 0 -5 -6 -1 -12 5 -7 8 -52 9 -100 0 -47 3 -89 7 -93 11 -11 107 -12 112 -1
3 7 5 7 5 -1 1 -7 13 -9 33 -6 18 3 46 6 63 7 16 1 44 8 61 15 34 16 89 85 79
101 -3 5 -1 10 5 10 6 0 8 5 5 10 -3 6 -1 10 6 10 10 0 10 3 1 12 -7 7 -12 22
-12 35 0 13 -4 23 -10 23 -5 0 -10 7 -10 15 0 9 -7 18 -15 21 -8 4 -12 10 -9
15 3 5 -1 9 -9 9 -8 0 -20 6 -27 14 -6 8 -18 12 -26 9 -8 -3 -14 -1 -14 5 0 5
-7 13 -16 16 -8 3 -13 2 -10 -2z m-28 -74 c30 0 54 -4 54 -8 0 -5 9 -12 20
-15 11 -4 18 -11 15 -16 -4 -5 -2 -9 2 -9 14 0 15 -58 2 -83 -14 -25 -41 -47
-51 -41 -4 2 -9 0 -13 -5 -3 -7 -15 -7 -30 -1 -13 5 -27 6 -29 1 -3 -4 -22 -8
-43 -7 l-38 1 -5 79 c-5 80 5 116 28 102 7 -4 12 -2 12 4 0 6 5 8 11 4 7 -4
36 -7 65 -6z"/>
<path d="M3486 1033 c-4 -4 -13 -8 -19 -8 -7 0 -12 -15 -12 -35 0 -19 -4 -38
-10 -42 -7 -5 -7 -8 0 -8 6 0 10 -40 10 -101 0 -114 6 -139 32 -134 10 2 21 4
24 4 9 1 19 41 10 41 -4 0 -7 9 -7 20 0 11 4 20 9 20 4 0 5 6 0 13 -11 18 -10
71 2 79 7 5 6 8 -1 8 -11 0 -11 51 0 69 4 5 2 12 -3 16 -6 3 -8 11 -5 18 6 16
-19 51 -30 40z"/>
<path d="M2690 1021 c0 -4 -23 -8 -52 -7 -50 1 -52 0 -55 -30 -4 -29 -2 -30
32 -28 20 2 40 6 45 9 6 3 10 2 10 -2 0 -11 41 -9 60 2 9 6 11 4 5 -5 -6 -9
-4 -11 6 -5 20 13 49 13 49 1 0 -6 4 -6 12 2 7 7 17 8 30 1 10 -5 18 -6 18 -1
0 10 50 9 67 -1 6 -4 16 0 23 8 7 8 17 12 24 8 6 -4 4 1 -4 12 -8 10 -15 21
-15 24 0 3 -26 6 -57 6 -32 0 -58 3 -58 7 0 4 -11 3 -25 -2 -16 -6 -25 -6 -25
0 0 6 -9 6 -22 1 -13 -5 -33 -5 -45 0 -13 5 -23 5 -23 0z"/>
<path d="M3746 1018 c3 -4 1 -8 -5 -8 -5 0 -15 -16 -22 -35 -7 -19 -17 -35
-21 -35 -4 0 -8 -7 -8 -15 0 -8 -5 -15 -11 -15 -5 0 -8 -4 -4 -9 3 -5 -1 -16
-9 -24 -8 -8 -12 -17 -9 -21 4 -3 1 -6 -6 -6 -7 0 -10 -4 -7 -9 3 -4 -3 -19
-14 -31 -11 -12 -17 -26 -15 -30 3 -4 -2 -11 -11 -14 -8 -3 -12 -10 -9 -16 3
-5 2 -10 -3 -10 -6 0 -8 -8 -5 -19 5 -21 53 -24 53 -3 0 6 5 12 11 12 5 0 7 5
4 10 -3 6 -1 10 5 10 6 0 9 4 6 9 -3 5 1 12 10 15 8 3 12 11 8 17 -3 6 -3 14
2 18 17 11 66 93 52 86 -7 -3 -5 0 4 8 10 8 15 16 12 19 -2 3 2 8 10 11 22 9
48 -22 86 -98 59 -117 98 -149 132 -107 11 13 10 15 -4 9 -13 -5 -18 -1 -18
13 0 10 -7 25 -15 33 -8 8 -16 21 -17 28 -2 8 -11 22 -21 31 -10 9 -18 19 -18
22 2 18 0 26 -12 38 -6 7 -21 30 -32 51 -11 20 -24 37 -30 37 -5 0 -4 4 3 9
10 6 6 11 -15 19 -33 12 -64 12 -57 0z"/>
<path d="M2092 1015 c4 -4 3 -14 -3 -22 -6 -7 -9 -22 -6 -33 3 -11 1 -23 -4
-26 -5 -3 -6 -10 -3 -16 11 -17 10 -78 -1 -78 -5 0 -5 -4 2 -8 12 -8 13 -29 0
-48 -3 -6 -3 -14 0 -18 4 -4 8 -21 9 -38 2 -26 24 -67 24 -44 0 5 8 2 17 -5
11 -10 14 -10 9 -1 -4 7 -2 12 4 12 6 0 8 5 5 10 -3 6 -1 10 5 10 8 0 9 7 5
18 -4 9 -8 47 -8 83 -2 56 1 66 15 65 18 -1 74 -61 84 -88 3 -10 10 -18 15
-18 6 0 7 -4 4 -10 -6 -9 4 -12 40 -12 30 0 36 2 30 12 -3 6 -1 10 5 10 6 0
15 11 20 25 5 14 14 25 20 25 5 0 10 6 10 13 1 6 9 23 20 35 18 22 21 22 35 8
12 -12 13 -20 5 -35 -6 -13 -7 -22 0 -26 5 -3 8 -28 6 -55 -3 -33 1 -55 11
-67 8 -10 11 -12 8 -5 -5 10 -1 13 16 10 22 -3 24 0 24 40 -1 23 3 42 7 42 4
0 5 6 3 13 -9 21 -11 107 -4 107 4 0 4 13 -1 29 -5 19 -4 33 3 40 8 8 7 11 -2
11 -8 0 -11 6 -7 15 3 8 2 14 -2 14 -4 -1 -9 0 -12 1 -16 7 -58 6 -54 -2 3 -4
-2 -8 -11 -8 -9 0 -14 -4 -11 -9 3 -4 -3 -16 -14 -26 -11 -10 -20 -24 -20 -32
0 -7 -7 -16 -15 -19 -8 -4 -15 -12 -15 -20 0 -8 -5 -14 -12 -14 -6 0 -8 -3 -5
-7 9 -9 -22 -43 -40 -43 -7 0 -13 5 -13 12 0 6 -3 9 -6 5 -6 -6 -34 16 -34 28
0 6 -11 20 -38 50 -7 8 -11 15 -8 15 3 0 -2 8 -13 19 -10 10 -20 24 -23 31 -2
7 -15 13 -28 14 -14 1 -32 6 -40 10 -8 5 -12 6 -8 1z"/>
<path d="M1525 1001 c-21 -6 -30 -38 -17 -57 4 -7 29 -8 70 -4 34 3 62 2 62
-3 0 -4 5 -5 11 -1 15 9 79 13 79 4 0 -4 13 -5 29 -2 25 3 32 -1 45 -27 21
-40 21 -39 -3 -60 -11 -10 -19 -20 -16 -22 2 -3 -44 -5 -103 -5 -59 -1 -124
-3 -144 -5 l-38 -3 4 -46 c2 -25 4 -57 5 -72 1 -21 5 -26 21 -23 25 5 53 32
42 39 -7 4 -8 30 -3 55 1 2 9 -3 18 -10 11 -10 14 -10 9 -1 -5 8 0 12 14 12
14 0 19 -4 14 -12 -6 -9 -3 -9 9 0 9 8 33 12 54 11 37 -3 60 -20 92 -66 16
-24 84 -31 74 -8 -3 8 -9 15 -14 15 -5 0 -8 6 -7 13 2 6 -3 11 -9 10 -23 -5
-10 49 19 79 15 17 25 34 22 39 -3 5 -1 9 4 9 6 0 7 14 2 35 -4 19 -6 35 -4
35 2 0 -10 13 -27 30 -18 16 -35 27 -40 24 -5 -3 -9 0 -9 6 0 7 -7 10 -15 7
-8 -4 -17 -2 -20 4 -4 5 -10 7 -15 4 -15 -9 -70 -13 -70 -4 0 5 -6 6 -13 3
-24 -9 -71 -11 -92 -4 -11 4 -29 4 -40 1z"/>
<path d="M937 993 c-4 -3 -37 -7 -74 -8 -84 -3 -85 -3 -78 -14 3 -5 1 -12 -5
-16 -14 -9 10 -33 30 -29 8 2 34 5 57 7 41 4 41 4 37 -26 -2 -18 2 -34 9 -39
6 -4 7 -8 2 -8 -7 0 -10 -27 -8 -72 3 -92 7 -110 32 -125 17 -11 19 -10 15 2
-4 9 0 15 10 15 10 0 13 5 9 17 -5 12 -3 14 8 8 12 -8 12 -6 0 8 -11 14 -11
20 -1 32 9 10 9 19 2 28 -5 6 -10 29 -10 49 0 20 -3 42 -8 49 -4 8 -3 10 4 5
16 -10 15 7 0 23 -11 11 -10 12 0 6 9 -5 12 -1 10 11 -3 17 4 19 57 18 56 -1
60 1 61 23 1 12 -2 20 -7 17 -5 -3 -9 0 -9 6 0 6 -10 10 -22 9 -13 -2 -29 1
-37 5 -8 6 -12 5 -8 0 3 -5 -12 -9 -33 -9 -21 0 -36 3 -34 7 6 10 0 10 -9 1z
m43 -233 c0 -5 -2 -10 -4 -10 -3 0 -8 5 -11 10 -3 6 -1 10 4 10 6 0 11 -4 11
-10z"/>
<path d="M519 986 c-3 -3 -19 -8 -35 -10 -16 -2 -38 -7 -49 -12 -21 -8 -51
-34 -40 -34 4 0 0 -7 -9 -15 -9 -9 -13 -26 -10 -43 6 -33 53 -80 77 -76 9 1
17 -2 17 -7 0 -5 10 -5 23 -1 28 9 146 7 169 -3 10 -4 15 -11 12 -16 -3 -5 0
-9 7 -9 8 0 9 -3 0 -13 -6 -8 -7 -17 -3 -22 4 -4 -5 -5 -20 -3 -16 3 -28 2
-28 -1 0 -8 -54 -6 -68 3 -7 4 -12 3 -12 -1 0 -17 -88 -8 -108 10 -13 12 -22
15 -27 7 -3 -5 -10 -8 -15 -5 -21 13 -18 -16 4 -40 28 -30 51 -37 126 -36 30
1 74 1 98 1 26 -1 49 5 58 15 9 8 19 13 24 10 7 -4 34 48 35 70 1 15 -29 68
-38 66 -4 -1 -14 5 -22 12 -10 11 -36 14 -89 13 -43 -1 -72 2 -69 7 3 5 -2 5
-13 0 -11 -5 -25 -8 -31 -7 -7 1 -20 2 -29 3 -8 0 -12 6 -9 11 3 6 1 10 -6 10
-8 0 -8 4 1 15 9 11 9 15 1 15 -7 0 -9 5 -6 10 4 6 10 8 14 6 4 -3 13 -1 20 4
8 4 27 4 42 0 16 -5 29 -5 29 -2 0 9 69 7 77 -2 4 -3 12 -1 19 4 8 8 16 6 26
-4 15 -15 30 -19 61 -17 25 2 21 18 -13 51 -16 16 -30 24 -30 17 0 -9 -2 -9
-8 0 -5 8 -31 11 -75 9 -36 -1 -68 2 -70 7 -1 4 -5 6 -8 3z"/>
<path d="M1209 979 c-6 -3 -11 -9 -11 -12 0 -20 -12 -47 -21 -47 -6 0 -7 -3
-4 -6 4 -4 -3 -19 -14 -35 -11 -15 -25 -42 -30 -59 -6 -16 -15 -30 -19 -30 -4
0 -11 -11 -14 -25 -4 -14 -11 -25 -17 -25 -6 0 -8 -4 -4 -9 3 -5 1 -12 -5 -16
-6 -4 -8 -11 -5 -16 4 -5 2 -9 -3 -9 -5 0 -9 -6 -9 -13 0 -8 10 -13 23 -13 25
2 56 24 49 36 -3 4 2 11 11 14 8 3 13 10 10 14 -3 5 6 24 19 42 13 18 22 37
19 41 -3 5 0 9 6 9 6 0 9 4 6 8 -3 5 4 18 14 30 11 12 20 26 20 32 0 25 52
-10 58 -40 2 -8 8 -17 13 -18 5 -2 7 -8 3 -13 -3 -5 0 -9 6 -9 6 0 8 -4 5 -10
-3 -5 -1 -10 4 -10 6 0 11 -7 11 -16 0 -8 5 -12 10 -9 6 3 10 -1 10 -10 0 -17
18 -51 38 -73 6 -7 12 -10 12 -6 0 3 6 1 13 -5 10 -8 19 -7 33 5 10 8 13 12 5
8 -11 -5 -13 -3 -8 9 4 11 1 17 -9 17 -8 0 -13 4 -10 9 3 5 -1 14 -9 21 -8 7
-12 16 -9 21 3 5 0 9 -6 9 -6 0 -9 4 -6 8 3 5 -4 14 -14 22 -10 8 -16 18 -13
22 3 5 -3 16 -13 23 -11 8 -15 15 -11 15 4 0 -5 19 -21 43 -16 23 -32 51 -36
62 -4 14 -15 20 -36 20 -17 1 -35 -2 -41 -6z"/>
<path d="M2757 894 c-4 -4 -34 -8 -66 -8 -33 -1 -63 -5 -67 -9 -13 -13 -11
-46 3 -51 9 -4 11 -1 7 6 -5 7 -3 8 6 3 20 -12 60 -12 60 0 0 5 5 3 10 -5 7
-11 10 -11 10 -2 0 9 5 10 18 3 13 -7 22 -7 29 0 8 8 13 7 17 0 5 -8 13 -8 27
-1 14 8 19 7 19 -2 0 -10 2 -10 9 0 11 17 12 18 37 4 38 -20 67 18 34 46 -10
9 -11 11 -1 6 9 -4 12 -3 7 4 -4 7 -17 8 -35 2 -15 -4 -34 -4 -41 0 -7 5 -23
4 -35 0 -13 -5 -26 -5 -32 1 -5 5 -12 6 -16 3z"/>
<path d="M2604 757 c-3 -9 -10 -14 -15 -11 -5 3 -8 -6 -7 -20 2 -20 8 -26 28
-27 39 -1 175 -1 175 1 0 1 39 2 87 2 80 1 87 3 90 23 5 23 -17 51 -27 36 -3
-6 -15 -7 -28 -5 -21 5 -35 5 -122 1 -22 -1 -46 2 -54 8 -11 7 -13 7 -7 -2 4
-8 1 -13 -8 -13 -9 0 -16 6 -16 13 0 7 -3 8 -8 2 -10 -13 -65 -14 -74 -1 -4 6
-9 4 -14 -7z"/>
</g>
</svg>
